<svg width="264" height="327" viewBox="0 0 264 327" fill="none" xmlns="http://www.w3.org/2000/svg">
<g clip-path="url(#clip0_2348_8434)">
<path d="M34.2 143.578V227.578C34.2 235.978 36.2667 242.445 40.4 246.978C44.5333 251.511 50.6 253.778 58.6 253.778C66.6 253.778 72.7333 251.511 77 246.978C81.2667 242.445 83.4 235.978 83.4 227.578V143.578H117.6V227.378C117.6 239.911 114.933 250.511 109.6 259.178C104.48 267.653 97.0115 274.462 88.1 278.778C78.7086 283.266 68.4076 285.525 58 285.378C46.9267 285.378 37.0267 283.211 28.3 278.878C19.592 274.566 12.3803 267.738 7.6 259.278C2.53333 250.551 0 239.918 0 227.378V143.578H34.2Z" fill="#299956"/>
<path d="M263.202 143.578V283.998H229.002V226.198H175.802V283.998H141.602V143.578H175.802V198.578H229.002V143.578H263.202Z" fill="#299956"/>
<path d="M263.2 326.059H0V295.379H263.2" fill="#299956"/>
<path d="M0 132L131.505 38L263 132" fill="#299956"/>
</g>
<defs>
<clipPath id="clip0_2348_8434">
<rect width="263.2" height="326.06" fill="white"/>
</clipPath>
</defs>
</svg>
